# xmcd
#
# Track frame offsets: 
#        150
#        16587
#        35490
#        58717
#        78767
#        96787
#        110112
#        134370
#        153322
#        174357
#        192080
#
# Disc length: 2906 seconds
#
# Revision: 0
# Processed by: cddbd v1.4b42PL1 Copyright (c) Steve Scherf et al.
# Submitted via: ExactAudioCopy v0.90a11
#
DISCID=800b580b
DTITLE=Luther Johnson - Live at the Rynborn
DYEAR=1900
DGENRE=
TTITLE0=I Don't Know Why
TTITLE1=You Don't Have to Go
TTITLE2=What You've Been Putting Down
TTITLE3=It's My Life Baby
TTITLE4=Stealing Chickens
TTITLE5=Love My Baby
TTITLE6=Five Long Years
TTITLE7=Hello Josephine
TTITLE8=C As In Chester
TTITLE9=If Blues Were Whiskey
TTITLE10=Rynborn Boogie
EXTD=
EXTT0=
EXTT1=
EXTT2=
EXTT3=
EXTT4=
EXTT5=
EXTT6=
EXTT7=
EXTT8=
EXTT9=
EXTT10=
PLAYORDER=
